# Blender 3.4.1
# www.blender.org
mtllib lung.mtl
o Lung
v -1.480156 3.370220 -2.762038
v -1.462519 3.322287 -2.727637
v -1.404891 3.251054 -2.700337
v -1.367891 3.161296 -2.682809
v -1.355142 3.061799 -2.676769
v -1.386932 2.978487 -2.682809
v -1.450303 2.911194 -2.700337
v -1.484766 2.844276 -2.727637
v -1.480429 2.787544 -2.762038
v -1.507853 3.371102 -2.738470
v -1.490026 3.324971 -2.682809
v -1.443942 3.254702 -2.638636
v -1.426388 3.165081 -2.610276
v -1.421519 3.065584 -2.600503
v -1.427111 2.966700 -2.610275
v -1.462045 2.889693 -2.638636
v -1.500480 2.814026 -2.682809
v -1.509076 2.787717 -2.738470
v -1.551762 3.371805 -2.738470
v -1.579499 3.326071 -2.682809
v -1.601511 3.254838 -2.638636
v -1.615644 3.165081 -2.610275
v -1.617343 3.046559 -2.600503
v -1.608075 2.920672 -2.610275
v -1.595836 2.846199 -2.638636
v -1.591654 2.792449 -2.682809
v -1.560896 2.761689 -2.738470
v -1.601511 3.371805 -2.762038
v -1.674127 3.326071 -2.727637
v -1.731755 3.254838 -2.700337
v -1.768755 3.165081 -2.682809
v -1.778333 3.046559 -2.676769
v -1.796074 2.890353 -2.682809
v -1.811230 2.744248 -2.700337
v -1.837620 2.698198 -2.747312
v -1.660983 2.744292 -2.770073
v -1.620514 3.371805 -2.800171
v -1.710271 3.326071 -2.800171
v -1.781504 3.254838 -2.800171
v -1.827238 3.165081 -2.800171
v -1.839826 3.046559 -2.800171
v -1.854841 2.889276 -2.800171
v -1.860979 2.744248 -2.800171
v -1.841681 2.695052 -2.819846
v -1.680610 2.741918 -2.808207
v -1.521016 3.387564 -2.800171
v -1.601511 3.371805 -2.838304
v -1.674127 3.326071 -2.872705
v -1.731755 3.254838 -2.900005
v -1.768755 3.165081 -2.917533
v -1.778333 3.046559 -2.923572
v -1.796074 2.890353 -2.917533
v -1.811222 2.744416 -2.900005
v -1.837624 2.698135 -2.892379
v -1.660921 2.744527 -2.846340
v -1.551763 3.371805 -2.861872
v -1.579499 3.326071 -2.917533
v -1.601511 3.254838 -2.961706
v -1.615644 3.165081 -2.990067
v -1.617343 3.046559 -2.999839
v -1.608075 2.920672 -2.990067
v -1.595836 2.846199 -2.961706
v -1.591654 2.792449 -2.917533
v -1.560896 2.761689 -2.861872
v -1.515575 2.769992 -2.800171
v -1.507853 3.371102 -2.861872
v -1.490026 3.324971 -2.917533
v -1.443942 3.254702 -2.961706
v -1.426389 3.165081 -2.990067
v -1.421519 3.065584 -2.999839
v -1.427111 2.966700 -2.990067
v -1.462045 2.889693 -2.961706
v -1.500480 2.814026 -2.917533
v -1.509076 2.787717 -2.861872
v -1.480157 3.370220 -2.838304
v -1.462519 3.322287 -2.872705
v -1.404891 3.251054 -2.900005
v -1.367891 3.161297 -2.917533
v -1.355142 3.061799 -2.923573
v -1.386932 2.978487 -2.917533
v -1.450302 2.911194 -2.900005
v -1.484766 2.844276 -2.872705
v -1.480429 2.787544 -2.838304
v -1.461154 3.370220 -2.800171
v -1.426374 3.322287 -2.800171
v -1.355142 3.251054 -2.800171
v -1.309408 3.161297 -2.800171
v -1.293649 3.061799 -2.800171
v -1.328433 2.978473 -2.800171
v -1.400556 2.911146 -2.800171
v -1.448067 2.832645 -2.800171
v -1.466564 2.793248 -2.800171
vn 0.6460 -0.6921 0.3221
vn 0.8143 0.4149 0.4058
vn 0.2757 0.9514 0.1374
vn 0.7575 -0.5047 0.4141
vn 0.8862 0.1404 0.4416
vn 0.7506 0.5446 0.3740
vn 0.8688 -0.2753 0.4117
vn 0.8384 -0.3501 0.4178
vn 0.6669 0.6669 0.3323
vn 0.4286 -0.9033 0.0207
vn 0.7617 0.3681 0.5332
vn 0.2092 0.9550 0.2102
vn 0.8890 -0.4579 0.0067
vn 0.7636 0.1181 0.6348
vn 0.6017 0.6590 0.4513
vn 0.8331 -0.4257 0.3531
vn 0.7998 -0.2128 0.5613
vn 0.6517 0.6634 0.3677
vn 0.2007 -0.9470 0.2509
vn 0.7914 -0.5900 0.1598
vn 0.4393 -0.8746 0.2050
vn 0.1030 -0.3623 0.9263
vn 0.0001 0.3015 0.9535
vn 0.0155 0.9669 0.2547
vn 0.1695 -0.5859 0.7925
vn -0.0044 0.0892 0.9960
vn 0.0104 0.7708 0.6370
vn 0.2769 -0.8316 0.4815
vn 0.0149 -0.0864 0.9962
vn 0.0026 0.5299 0.8480
vn -0.3890 -0.0399 0.9204
vn -0.3519 0.5694 0.7429
vn 0.1729 -0.9849 -0.0055
vn -0.2519 -0.1939 0.9481
vn -0.4037 0.3328 0.8522
vn -0.0954 0.9748 0.2014
vn 0.0920 -0.6826 0.7250
vn -0.4267 0.0804 0.9008
vn -0.2537 0.8056 0.5355
vn 0.1991 -0.9163 0.3475
vn -0.4428 0.8690 0.2207
vn 0.2651 -0.9642 -0.0086
vn -0.8916 0.0846 0.4449
vn -0.6669 0.6669 0.3323
vn 0.1689 -0.9853 -0.0255
vn -0.8940 0.0385 0.4465
vn -0.8143 0.4149 0.4058
vn -0.1560 0.9847 0.0777
vn -0.9447 -0.1378 0.2974
vn -0.8910 0.0946 0.4440
vn -0.8910 0.0946 -0.4440
vn -0.4428 0.8690 -0.2207
vn 0.2650 -0.9642 0.0073
vn -0.8916 0.0846 -0.4449
vn -0.6669 0.6669 -0.3323
vn 0.1668 -0.9858 0.0187
vn -0.8940 0.0385 -0.4465
vn -0.8143 0.4149 -0.4058
vn -0.1560 0.9847 -0.0777
vn -0.9496 0.1078 -0.2944
vn -0.0954 0.9748 -0.2014
vn 0.0311 -0.4651 -0.8847
vn -0.4267 0.0804 -0.9008
vn -0.2537 0.8056 -0.5355
vn 0.2464 -0.8979 -0.3647
vn -0.3890 -0.0399 -0.9204
vn -0.3519 0.5694 -0.7429
vn 0.1702 -0.9854 0.0076
vn -0.2519 -0.1941 -0.9481
vn -0.4037 0.3328 -0.8522
vn 0.1031 -0.3623 -0.9263
vn 0.0001 0.3015 -0.9535
vn 0.0155 0.9669 -0.2547
vn 0.1695 -0.5859 -0.7925
vn -0.0044 0.0892 -0.9960
vn 0.0104 0.7708 -0.6370
vn 0.2769 -0.8316 -0.4814
vn 0.0149 -0.0864 -0.9962
vn 0.0027 0.5299 -0.8480
vn 0.4393 -0.8746 -0.2050
vn 0.6517 0.6634 -0.3677
vn 0.2007 -0.9470 -0.2509
vn 0.7914 -0.5900 -0.1598
vn 0.7617 0.3681 -0.5332
vn 0.2092 0.9550 -0.2102
vn 0.8890 -0.4579 -0.0067
vn 0.7636 0.1181 -0.6348
vn 0.6017 0.6590 -0.4513
vn 0.8331 -0.4257 -0.3531
vn 0.7998 -0.2128 -0.5613
vn 0.8384 -0.3501 -0.4178
vn 0.6669 0.6669 -0.3323
vn 0.4286 -0.9033 -0.0207
vn 0.6459 -0.6921 -0.3221
vn 0.8143 0.4149 -0.4058
vn 0.2756 0.9514 -0.1374
vn 0.7575 -0.5047 -0.4141
vn 0.8862 0.1404 -0.4416
vn 0.7506 0.5447 -0.3740
vn 0.8688 -0.2753 -0.4117
vt 0.600000 0.900000
vt 0.600000 0.800000
vt 0.600000 0.700000
vt 0.600000 0.600000
vt 0.600000 0.500000
vt 0.600000 0.400000
vt 0.600000 0.300000
vt 0.600000 0.200000
vt 0.600000 0.100000
vt 0.500000 0.900000
vt 0.500000 0.800000
vt 0.500000 0.700000
vt 0.500000 0.600000
vt 0.500000 0.500000
vt 0.500000 0.400000
vt 0.500000 0.300000
vt 0.500000 0.200000
vt 0.500000 0.100000
vt 0.400000 0.900000
vt 0.400000 0.800000
vt 0.400000 0.700000
vt 0.400000 0.600000
vt 0.400000 0.500000
vt 0.400000 0.400000
vt 0.400000 0.300000
vt 0.400000 0.200000
vt 0.400000 0.100000
vt 0.300000 0.900000
vt 0.300000 0.800000
vt 0.300000 0.700000
vt 0.300000 0.600000
vt 0.300000 0.500000
vt 0.300000 0.400000
vt 0.300000 0.300000
vt 0.300000 0.200000
vt 0.300000 0.100000
vt 0.200000 0.900000
vt 0.200000 0.800000
vt 0.200000 0.700000
vt 0.200000 0.600000
vt 0.200000 0.500000
vt 0.200000 0.400000
vt 0.200000 0.300000
vt 0.200000 0.176075
vt 0.200000 0.100000
vt 0.650000 1.000000
vt 0.550000 1.000000
vt 0.450000 1.000000
vt 0.350000 1.000000
vt 0.250000 1.000000
vt 0.150000 1.000000
vt 0.050000 1.000000
vt 0.950000 1.000000
vt 0.850000 1.000000
vt 0.750000 1.000000
vt 0.100000 0.900000
vt 0.100000 0.800000
vt 0.100000 0.700000
vt 0.100000 0.600000
vt 0.100000 0.500000
vt 0.100000 0.400000
vt 0.100000 0.300000
vt 0.100000 0.200000
vt 0.100000 0.100000
vt 0.000000 0.900000
vt 1.000000 0.900000
vt 0.000000 0.800000
vt 1.000000 0.800000
vt 0.000000 0.700000
vt 1.000000 0.700000
vt 0.000000 0.600000
vt 1.000000 0.600000
vt 0.000000 0.500000
vt 1.000000 0.500000
vt 0.000000 0.400000
vt 1.000000 0.400000
vt 0.000000 0.300000
vt 1.000000 0.300000
vt 0.000000 0.200000
vt 1.000000 0.200000
vt 0.000000 0.100000
vt 1.000000 0.100000
vt 0.650000 0.000000
vt 0.550000 0.000000
vt 0.450000 0.000000
vt 0.350000 0.000000
vt 0.250000 0.000000
vt 0.150000 0.000000
vt 0.050000 0.000000
vt 0.950000 0.000000
vt 0.850000 0.000000
vt 0.750000 0.000000
vt 0.900000 0.900000
vt 0.900000 0.800000
vt 0.900000 0.700000
vt 0.900000 0.600000
vt 0.900000 0.500000
vt 0.900000 0.400000
vt 0.900000 0.300000
vt 0.900000 0.200000
vt 0.900000 0.100000
vt 0.800000 0.900000
vt 0.800000 0.800000
vt 0.800000 0.700000
vt 0.800000 0.600000
vt 0.800000 0.500000
vt 0.800000 0.400000
vt 0.800000 0.300000
vt 0.800000 0.200000
vt 0.800000 0.100000
vt 0.700000 0.900000
vt 0.700000 0.800000
vt 0.700000 0.700000
vt 0.700000 0.600000
vt 0.700000 0.500000
vt 0.700000 0.400000
vt 0.700000 0.300000
vt 0.700000 0.200000
vt 0.700000 0.100000
s 0
usemtl brain
f 90/117/1 89/116/1 6/6/1 7/7/1
f 87/114/2 86/113/2 3/3/2 4/4/2
f 84/111/3 46/46/3 1/1/3
f 91/118/4 90/117/4 7/7/4 8/8/4
f 88/115/5 87/114/5 4/4/5 5/5/5
f 85/112/6 84/111/6 1/1/6 2/2/6
f 92/119/7 91/118/7 8/8/7 9/9/7
f 89/116/8 88/115/8 5/5/8 6/6/8
f 86/113/9 85/112/9 2/2/9 3/3/9
f 65/83/10 92/119/10 9/9/10
f 4/4/11 3/3/11 12/12/11 13/13/11
f 1/1/12 46/47/12 10/10/12
f 8/8/13 7/7/13 16/16/13 17/17/13
f 5/5/14 4/4/14 13/13/14 14/14/14
f 2/2/15 1/1/15 10/10/15 11/11/15
f 9/9/16 8/8/16 17/17/16 18/18/16
f 6/6/17 5/5/17 14/14/17 15/15/17
f 3/3/18 2/2/18 11/11/18 12/12/18
f 65/84/19 9/9/19 18/18/19
f 7/7/20 6/6/20 15/15/20 16/16/20
f 65/85/21 18/18/21 27/27/21
f 16/16/22 15/15/22 24/24/22 25/25/22
f 13/13/23 12/12/23 21/21/23 22/22/23
f 10/10/24 46/48/24 19/19/24
f 17/17/25 16/16/25 25/25/25 26/26/25
f 14/14/26 13/13/26 22/22/26 23/23/26
f 11/11/27 10/10/27 19/19/27 20/20/27
f 18/18/28 17/17/28 26/26/28 27/27/28
f 15/15/29 14/14/29 23/23/29 24/24/29
f 12/12/30 11/11/30 20/20/30 21/21/30
f 24/24/31 23/23/31 32/32/31 33/33/31
f 21/21/32 20/20/32 29/29/32 30/30/32
f 65/86/33 27/27/33 36/36/33
f 25/25/34 24/24/34 33/33/34 34/34/34
f 22/22/35 21/21/35 30/30/35 31/31/35
f 19/19/36 46/49/36 28/28/36
f 26/26/37 25/25/37 34/34/37 35/35/37
f 23/23/38 22/22/38 31/31/38 32/32/38
f 20/20/39 19/19/39 28/28/39 29/29/39
f 27/27/40 26/26/40 35/35/40 36/36/40
f 29/29/41 28/28/41 37/37/41 38/38/41
f 36/36/42 35/35/42 44/44/42 45/45/42
f 33/33/43 32/32/43 41/41/43 42/42/43
f 30/30/44 29/29/44 38/38/44 39/39/44
f 65/87/45 36/36/45 45/45/45
f 34/34/46 33/33/46 42/42/46 43/43/46
f 31/31/47 30/30/47 39/39/47 40/40/47
f 28/28/48 46/50/48 37/37/48
f 35/35/49 34/34/49 43/43/49 44/44/49
f 32/32/50 31/31/50 40/40/50 41/41/50
f 41/41/51 40/40/51 50/59/51 51/60/51
f 38/38/52 37/37/52 47/56/52 48/57/52
f 45/45/53 44/44/53 54/63/53 55/64/53
f 42/42/54 41/41/54 51/60/54 52/61/54
f 39/39/55 38/38/55 48/57/55 49/58/55
f 65/88/56 45/45/56 55/64/56
f 43/43/57 42/42/57 52/61/57 53/62/57
f 40/40/58 39/39/58 49/58/58 50/59/58
f 37/37/59 46/51/59 47/56/59
f 44/44/60 43/43/60 53/62/60 54/63/60
f 47/56/61 46/52/61 56/65/61
f 54/63/62 53/62/62 62/77/62 63/79/62
f 51/60/63 50/59/63 59/71/63 60/73/63
f 48/57/64 47/56/64 56/65/64 57/67/64
f 55/64/65 54/63/65 63/79/65 64/81/65
f 52/61/66 51/60/66 60/73/66 61/75/66
f 49/58/67 48/57/67 57/67/67 58/69/67
f 65/89/68 55/64/68 64/81/68
f 53/62/69 52/61/69 61/75/69 62/77/69
f 50/59/70 49/58/70 58/69/70 59/71/70
f 62/78/71 61/76/71 71/98/71 72/99/71
f 59/72/72 58/70/72 68/95/72 69/96/72
f 56/66/73 46/53/73 66/93/73
f 63/80/74 62/78/74 72/99/74 73/100/74
f 60/74/75 59/72/75 69/96/75 70/97/75
f 57/68/76 56/66/76 66/93/76 67/94/76
f 64/82/77 63/80/77 73/100/77 74/101/77
f 61/76/78 60/74/78 70/97/78 71/98/78
f 58/70/79 57/68/79 67/94/79 68/95/79
f 65/90/80 64/82/80 74/101/80
f 68/95/81 67/94/81 76/103/81 77/104/81
f 65/91/82 74/101/82 83/110/82
f 72/99/83 71/98/83 80/107/83 81/108/83
f 69/96/84 68/95/84 77/104/84 78/105/84
f 66/93/85 46/54/85 75/102/85
f 73/100/86 72/99/86 81/108/86 82/109/86
f 70/97/87 69/96/87 78/105/87 79/106/87
f 67/94/88 66/93/88 75/102/88 76/103/88
f 74/101/89 73/100/89 82/109/89 83/110/89
f 71/98/90 70/97/90 79/106/90 80/107/90
f 80/107/91 79/106/91 88/115/91 89/116/91
f 77/104/92 76/103/92 85/112/92 86/113/92
f 65/92/93 83/110/93 92/119/93
f 81/108/94 80/107/94 89/116/94 90/117/94
f 78/105/95 77/104/95 86/113/95 87/114/95
f 75/102/96 46/55/96 84/111/96
f 82/109/97 81/108/97 90/117/97 91/118/97
f 79/106/98 78/105/98 87/114/98 88/115/98
f 76/103/99 75/102/99 84/111/99 85/112/99
f 83/110/100 82/109/100 91/118/100 92/119/100
